<?xml version="1.0" encoding="UTF-8" standalone="no" ?>
<!DOCTYPE svg PUBLIC "-//W3C//DTD SVG 1.1//EN" "http://www.w3.org/Graphics/SVG/1.1/DTD/svg11.dtd">
<svg xmlns="http://www.w3.org/2000/svg" xmlns:xlink="http://www.w3.org/1999/xlink" version="1.1" width="1080" height="1080" viewBox="0 0 1080 1080" xml:space="preserve">
<desc>Created with Fabric.js 5.2.4</desc>
<defs>
</defs>
<g transform="matrix(1 0 0 1 540 540)" id="ce778be1-1ae8-422e-a441-c058cb4c7e85"  >
<rect style="stroke: none; stroke-width: 1; stroke-dasharray: none; stroke-linecap: butt; stroke-dashoffset: 0; stroke-linejoin: miter; stroke-miterlimit: 4; fill: rgb(255,255,255); fill-rule: nonzero; opacity: 1; visibility: hidden;" vector-effect="non-scaling-stroke"  x="-540" y="-540" rx="0" ry="0" width="1080" height="1080" />
</g>
<g transform="matrix(1 0 0 1 540 540)" id="fe043a5d-bcf9-4a07-a956-ee878d16727c"  >
</g>
<g transform="matrix(5.66 0 0 5.66 540 540)"  >
<g style="" vector-effect="non-scaling-stroke"   >
		<g transform="matrix(1 0 0 1 28.96 43.15)"  >
<path style="stroke: none; stroke-width: 1; stroke-dasharray: none; stroke-linecap: butt; stroke-dashoffset: 0; stroke-linejoin: miter; stroke-miterlimit: 4; fill: rgb(104,225,253); fill-rule: nonzero; opacity: 1;" vector-effect="non-scaling-stroke"  transform=" translate(-228.96, -193.14)" d="M 220.28 162.2 L 237.7 162.2 C 251.16953463401126 162.22244763139025 263.0512897131209 171.02224576165239 267 183.89999999999998 L 276.41 214.58999999999997 C 277.09546917960955 216.81286072462726 276.68516402652966 219.22913127579702 275.3043517255982 221.10111823805977 C 273.9235394246668 222.9731052003225 271.7361504122007 224.07856573930016 269.41 224.07999999999998 L 188.51000000000002 224.07999999999998 C 186.18384958779933 224.07856573930016 183.99646057533323 222.9731052003225 182.61564827440182 221.10111823805977 C 181.2348359734704 219.22913127579704 180.82453082039046 216.81286072462726 181.51000000000002 214.58999999999997 L 190.92000000000002 183.89999999999998 C 194.87522423119458 171.00106697029398 206.78828932647352 162.19611082017298 220.28 162.2 z" stroke-linecap="round" />
</g>
		<g transform="matrix(1 0 0 1 28.98 43.15)"  >
<path style="stroke: none; stroke-width: 1; stroke-dasharray: none; stroke-linecap: butt; stroke-dashoffset: 0; stroke-linejoin: miter; stroke-miterlimit: 4; fill: rgb(9,63,104); fill-rule: nonzero; opacity: 1;" vector-effect="non-scaling-stroke"  transform=" translate(-228.98, -193.14)" d="M 269.44 225.08 L 188.54 225.08 C 185.89128633545832 225.087916065249 183.39629393660985 223.83717956569146 181.81781270217093 221.71017610228503 C 180.23933146773203 219.5831726388786 179.76506128783117 216.8328278135714 180.54 214.3 L 190 183.61 C 194.0361321160354 170.2636465077383 206.3567888756453 161.1512399736506 220.3 161.20000000000002 L 237.70000000000002 161.20000000000002 C 251.64321112435474 161.1512399736506 263.9638678839646 170.26364650773831 268 183.61 L 277.41 214.3 C 278.18493871216884 216.8328278135714 277.710668532268 219.5831726388786 276.1321872978291 221.71017610228503 C 274.55370606339017 223.83717956569149 272.0587136645417 225.087916065249 269.41 225.08 z M 220.28 163.20000000000002 C 207.21479250312223 163.15405889933027 195.6702310628949 171.69353724539485 191.89 184.20000000000002 L 182.48 214.89000000000001 C 181.8945854880409 216.8122092957333 182.25350929618597 218.89807412911523 183.44775461268705 220.51404963989225 C 184.64199992918813 222.1300251506693 186.53062756522564 223.08540154538923 188.54 223.09 L 269.44 223.09 C 271.4493724347744 223.08540154538923 273.33800007081186 222.1300251506693 274.53224538731297 220.51404963989225 C 275.726490703814 218.89807412911523 276.0854145119591 216.8122092957333 275.5 214.89000000000001 L 266.09 184.20000000000002 C 262.30976893710505 171.69353724539485 250.76520749687774 163.15405889933027 237.7 163.20000000000002 z" stroke-linecap="round" />
</g>
		<g transform="matrix(1 0 0 1 28.98 14.07)"  >
<path style="stroke: none; stroke-width: 1; stroke-dasharray: none; stroke-linecap: butt; stroke-dashoffset: 0; stroke-linejoin: miter; stroke-miterlimit: 4; fill: rgb(255,201,176); fill-rule: nonzero; opacity: 1;" vector-effect="non-scaling-stroke"  transform=" translate(-228.98, -164.06)" d="M 223.67 158.74 L 234.31 158.74 L 234.31 164.86 C 234.31 166.05877853407475 233.8337870815483 167.2084582203781 232.9861226509632 168.05612265096323 C 232.13845822037808 168.90378708154833 230.98877853407473 169.38000000000002 229.79 169.38000000000002 L 228.17999999999998 169.38000000000002 C 226.98122146592524 169.38000000000002 225.8315417796219 168.90378708154833 224.98387734903676 168.05612265096323 C 224.13621291845166 167.2084582203781 223.65999999999997 166.05877853407475 223.65999999999997 164.86 L 223.65999999999997 158.74 z" stroke-linecap="round" />
</g>
		<g transform="matrix(1 0 0 1 28.99 14.06)"  >
<path style="stroke: none; stroke-width: 1; stroke-dasharray: none; stroke-linecap: butt; stroke-dashoffset: 0; stroke-linejoin: miter; stroke-miterlimit: 4; fill: rgb(9,63,104); fill-rule: nonzero; opacity: 1;" vector-effect="non-scaling-stroke"  transform=" translate(-228.99, -164.06)" d="M 229.79 170.37 L 228.19 170.37 C 225.14528915774645 170.3700049961821 222.67551578050723 167.90470584607556 222.67 164.86 L 222.67 158.74 C 222.67 158.18771525016922 223.1177152501692 157.74 223.67 157.74 L 234.31 157.74 C 234.8622847498308 157.74 235.31 158.18771525016922 235.31 158.74 L 235.31 164.86 C 235.30448421949276 167.90470584607556 232.83471084225354 170.3700049961821 229.79 170.37 z M 224.67 159.74 L 224.67 164.86 C 224.67551177203845 166.80013593385738 226.24985623692103 168.37000782923744 228.19 168.37 L 229.79 168.37 C 231.73014376307896 168.37000782923744 233.30448822796154 166.80013593385738 233.31 164.86 L 233.31 159.74 z" stroke-linecap="round" />
</g>
		<g transform="matrix(1 0 0 1 28.6 -55.09)"  >
<path style="stroke: none; stroke-width: 1; stroke-dasharray: none; stroke-linecap: butt; stroke-dashoffset: 0; stroke-linejoin: miter; stroke-miterlimit: 4; fill: rgb(114,88,88); fill-rule: nonzero; opacity: 1;" vector-effect="non-scaling-stroke"  transform=" translate(-228.6, -94.9)" d="M 192.27 129.23 C 187.33 127.35999999999999 187.63000000000002 123.57999999999998 186.89000000000001 118.74 C 186.14891787243502 113.94448199480499 185.6914561560726 109.10941217514976 185.52 104.26 C 185.33 98.74999999999999 185.52 93.08999999999999 187.62 87.97999999999999 C 190.31 81.41 195.62 77.16999999999999 202.71 77.74999999999999 C 202.5 68.07 208.31 58.98999999999998 218.60000000000002 58.43999999999998 C 235.09000000000003 57.55999999999998 244.60000000000002 75.26999999999998 253.81000000000003 73.94999999999999 C 263.02000000000004 72.63 265.49 68.52999999999999 265.49 68.52999999999999 C 268.65443208532173 74.5862498154399 267.86544439960835 81.95144986157453 263.49 87.19999999999999 C 263.49 87.19999999999999 270.76 85.07999999999998 271.64 94.74999999999999 C 272.52 104.41999999999999 266.72999999999996 130.11999999999998 266.72999999999996 130.11999999999998 L 260.15999999999997 128.99999999999997 C 257.39 128.50999999999996 253.92999999999998 129.18999999999997 251.15999999999997 129.27999999999997 L 230.54999999999995 129.91999999999996 C 220.20999999999995 130.20999999999995 203.48999999999995 133.46999999999997 192.26999999999995 129.22999999999996 z" stroke-linecap="round" />
</g>
		<g transform="matrix(1 0 0 1 28.61 -55.11)"  >
<path style="stroke: none; stroke-width: 1; stroke-dasharray: none; stroke-linecap: butt; stroke-dashoffset: 0; stroke-linejoin: miter; stroke-miterlimit: 4; fill: rgb(9,63,104); fill-rule: nonzero; opacity: 1;" vector-effect="non-scaling-stroke"  transform=" translate(-228.61, -94.88)" d="M 207.13 132.38 C 201.71 132.38 196.38 131.85 191.91 130.16 C 187.12 128.34 186.68 124.88 186.17 120.87 Q 186.04999999999998 119.87 185.89999999999998 118.87 C 185.1546702806867 114.03453412837094 184.69387747907973 109.15947985050045 184.51999999999995 104.27 C 184.33999999999997 99.10000000000001 184.45999999999998 93.06 186.7 87.59 C 189.54999999999998 80.59 194.86999999999998 76.68 201.39999999999998 76.68 L 201.70999999999998 76.68 C 201.92999999999998 67.37 207.64 58.00000000000001 218.54999999999998 57.42 C 228.14 56.92 235.54999999999998 62.510000000000005 241.46999999999997 67 C 246.04999999999998 70.47 250.00999999999996 73.46 253.65999999999997 72.94 C 262.21 71.72 264.65999999999997 68.03 264.65999999999997 67.99 C 264.8449850314581 67.69396924426705 265.1709495067654 67.51582586822704 265.52 67.52 C 265.87306729112663 67.52006157844558 266.1999356841567 67.70630054656733 266.38 68.00999999999999 C 266.43 68.1 271.44 76.92999999999999 265.62 86.00999999999999 C 266.862143724101 86.06614605859244 268.0653950290972 86.4603145895395 269.1 87.14999999999999 C 271.1 88.55 272.35 91.07 272.67 94.66 C 273.56 104.38 267.99 129.28 267.75 130.34 C 267.6303837127108 130.85927039147944 267.1245970300025 131.1935294165736 266.6 131.1 L 260 130 C 258.04758438358107 129.78318809841468 256.0757818739201 129.81006104573544 254.13 130.08 C 253.13 130.18 252.13 130.27 251.13 130.3 L 230.51999999999998 130.94 C 227.95 131.02 224.92999999999998 131.29 221.73999999999998 131.57 C 217.23 131.93 212.14 132.38 207.13 132.38 z M 192.62 128.29 C 200.8 131.39 212.33 130.35999999999999 221.62 129.53 C 224.84 129.24 227.89000000000001 128.97 230.52 128.89000000000001 L 251.13 128.25000000000003 C 252 128.25000000000003 252.95 128.13000000000002 253.95 128.04000000000002 C 256.07195140846454 127.74587605087726 258.2229072186388 127.72571084015688 260.34999999999997 127.98000000000002 C 260.7 127.98000000000002 261.84 128.23000000000002 265.99999999999994 128.98000000000002 C 266.99999999999994 124.30000000000001 271.43999999999994 103.23000000000002 270.67999999999995 94.85000000000002 C 270.40999999999997 91.85000000000002 269.50999999999993 89.85000000000002 267.98999999999995 88.85000000000002 C 266.7420406533797 88.07703800038718 265.2354036701788 87.8391479504081 263.80999999999995 88.19000000000003 C 263.3901660641823 88.310397464938 262.9407638445388 88.1444020504751 262.69999999999993 87.78000000000003 C 262.4606552041622 87.4156362303636 262.48493125914035 86.93820714912643 262.75999999999993 86.60000000000002 C 266.5813080389287 82.08766921087539 267.5472834742319 75.81269278314569 265.25999999999993 70.36000000000003 C 263.72999999999996 71.80000000000003 260.3999999999999 74.05000000000003 253.96999999999994 74.97000000000003 C 249.48999999999995 75.60000000000002 245.21999999999994 72.38000000000002 240.27999999999994 68.65000000000003 C 234.27999999999994 64.12000000000003 227.52999999999994 59.000000000000036 218.67999999999995 59.470000000000034 C 208.61999999999995 60.000000000000036 203.53999999999996 69.08000000000004 203.72999999999996 77.76000000000003 C 203.73473370010225 78.04410969578348 203.618378146177 78.31681802529577 203.40999999999997 78.51000000000003 C 203.20339611603944 78.70538492039222 202.92338099963732 78.80357203913061 202.63999999999996 78.78000000000003 C 196.39999999999995 78.26000000000003 191.26999999999995 81.78000000000003 188.56999999999996 88.39000000000003 C 186.47999999999996 93.52000000000002 186.36999999999998 99.29000000000003 186.56999999999996 104.25000000000003 C 186.73872214979838 109.05895270591539 187.18949695065953 113.85386095803878 187.91999999999996 118.60999999999999 C 188.02999999999997 119.32000000000002 188.11999999999995 119.99000000000002 188.19999999999996 120.61000000000003 C 188.67999999999995 124.39000000000003 188.99999999999997 126.89000000000003 192.66999999999996 128.28000000000003 z" stroke-linecap="round" />
</g>
		<g transform="matrix(1 0 0 1 -1.41 -18.88)"  >
<ellipse style="stroke: none; stroke-width: 1; stroke-dasharray: none; stroke-linecap: butt; stroke-dashoffset: 0; stroke-linejoin: miter; stroke-miterlimit: 4; fill: rgb(255,201,176); fill-rule: nonzero; opacity: 1;" vector-effect="non-scaling-stroke"  cx="0" cy="0" rx="10.33" ry="8.9" />
</g>
		<g transform="matrix(1 0 0 1 -1.41 -18.9)"  >
<path style="stroke: none; stroke-width: 1; stroke-dasharray: none; stroke-linecap: butt; stroke-dashoffset: 0; stroke-linejoin: miter; stroke-miterlimit: 4; fill: rgb(9,63,104); fill-rule: nonzero; opacity: 1;" vector-effect="non-scaling-stroke"  transform=" translate(-198.59, -131.09)" d="M 198.59 141 C 192.34 141 187.26 136.56 187.26 131.1 C 187.26 125.63999999999999 192.34 121.19 198.59 121.19 C 204.84 121.19 209.93 125.64 209.93 131.1 C 209.93 136.56 204.84 141 198.59 141 z M 198.59 123.19 C 193.45000000000002 123.19 189.26 126.74 189.26 131.1 C 189.26 135.45999999999998 193.45 139 198.59 139 C 203.73000000000002 139 207.93 135.46 207.93 131.1 C 207.93 126.73999999999998 203.74 123.19999999999999 198.59 123.19999999999999 z" stroke-linecap="round" />
</g>
		<g transform="matrix(1 0 0 1 58.84 -18.88)"  >
<ellipse style="stroke: none; stroke-width: 1; stroke-dasharray: none; stroke-linecap: butt; stroke-dashoffset: 0; stroke-linejoin: miter; stroke-miterlimit: 4; fill: rgb(255,201,176); fill-rule: nonzero; opacity: 1;" vector-effect="non-scaling-stroke"  cx="0" cy="0" rx="10.33" ry="8.9" />
</g>
		<g transform="matrix(1 0 0 1 58.83 -18.9)"  >
<path style="stroke: none; stroke-width: 1; stroke-dasharray: none; stroke-linecap: butt; stroke-dashoffset: 0; stroke-linejoin: miter; stroke-miterlimit: 4; fill: rgb(9,63,104); fill-rule: nonzero; opacity: 1;" vector-effect="non-scaling-stroke"  transform=" translate(-258.83, -131.09)" d="M 258.84 141 C 252.58999999999997 141 247.49999999999997 136.56 247.49999999999997 131.1 C 247.49999999999997 125.63999999999999 252.58999999999997 121.19 258.84 121.19 C 265.09 121.19 270.16999999999996 125.64 270.16999999999996 131.1 C 270.16999999999996 136.56 265.09 141 258.84 141 z M 258.84 123.19 C 253.68999999999997 123.19 249.49999999999997 126.74 249.49999999999997 131.1 C 249.49999999999997 135.45999999999998 253.68999999999997 139 258.84 139 C 263.99 139 268.16999999999996 135.46 268.16999999999996 131.1 C 268.16999999999996 126.73999999999998 263.99999999999994 123.19999999999999 258.84 123.19999999999999 z" stroke-linecap="round" />
</g>
		<g transform="matrix(1 0 0 1 28.99 -23.46)"  >
<path style="stroke: none; stroke-width: 1; stroke-dasharray: none; stroke-linecap: butt; stroke-dashoffset: 0; stroke-linejoin: miter; stroke-miterlimit: 4; fill: rgb(255,201,176); fill-rule: nonzero; opacity: 1;" vector-effect="non-scaling-stroke"  transform=" translate(-228.99, -126.53)" d="M 229 160.13 C 211.79698915347672 160.1355332566366 197.84207548065993 146.2029975723907 197.82 129 L 197.82 106.34 C 199.64 109.34 205.69 108.14 214.56 92.93 C 247.76 109.75 260.16 100.11000000000001 260.16 100.11000000000001 L 260.16 129 C 260.1379345302809 146.1951891596108 246.19520243681407 160.12449757006087 229.00000000000003 160.13 z" stroke-linecap="round" />
</g>
		<g transform="matrix(1 0 0 1 28.98 -23.48)"  >
<path style="stroke: none; stroke-width: 1; stroke-dasharray: none; stroke-linecap: butt; stroke-dashoffset: 0; stroke-linejoin: miter; stroke-miterlimit: 4; fill: rgb(9,63,104); fill-rule: nonzero; opacity: 1;" vector-effect="non-scaling-stroke"  transform=" translate(-228.98, -126.51)" d="M 229 161.13 C 211.2515393998788 161.11901804069657 196.85858021981224 146.7484220663169 196.82 129 L 196.82 106.34 C 196.81557421389348 105.88779645827901 197.11518111712266 105.48890155270092 197.5507063152392 105.36714181989414 C 197.9862315133558 105.24538208708736 198.4492686825592 105.43106467134022 198.68 105.82000000000001 C 198.9924246341767 106.36330880648734 199.58420912193003 106.68434222141234 200.21 106.65 C 201.43 106.65 206.01000000000002 105.58000000000001 213.68 92.42 C 213.93610080710815 91.94858197997027 214.51857298074822 91.76324992472117 215 92 C 247.07999999999998 108.25 259.42 99.37 259.54 99.28 C 259.84301853299286 99.04671505512414 260.25254856238575 99.00667185354531 260.5950163152627 99.17684216553386 C 260.93748406813967 99.34701247752241 261.1529143713824 99.69759497482077 261.15000000000003 100.08 L 261.15000000000003 129 C 261.1114631251601 146.7367269605075 246.73674750704657 161.1025002982987 229.00000000000003 161.13 z M 198.82999999999998 108.41 L 198.82999999999998 129 C 198.83000048380285 145.66243056029475 212.33756943970522 159.16999912399743 228.99999999999997 159.16999912399743 C 245.66243056029472 159.16999912399743 259.1699995161971 145.66243056029475 259.16999999999996 129 L 259.16999999999996 101.83 C 254.84999999999997 103.83 241.57999999999996 107.50999999999999 214.95999999999995 94.24 C 209.43999999999994 103.50999999999999 204.22999999999996 108.61999999999999 200.25999999999996 108.64999999999999 C 199.76835743488198 108.67394525647951 199.2773012621993 108.5921025610324 198.81999999999996 108.41 z" stroke-linecap="round" />
</g>
		<g transform="matrix(1 0 0 1 49 47.44)"  >
<path style="stroke: none; stroke-width: 1; stroke-dasharray: none; stroke-linecap: butt; stroke-dashoffset: 0; stroke-linejoin: miter; stroke-miterlimit: 4; fill: rgb(9,63,104); fill-rule: nonzero; opacity: 1;" vector-effect="non-scaling-stroke"  transform=" translate(-249, -197.43)" d="M 249 216.72 C 248.4477152501692 216.72 248 216.2722847498308 248 215.72 L 248 179.14 C 248 178.5877152501692 248.4477152501692 178.14 249 178.14 C 249.5522847498308 178.14 250 178.5877152501692 250 179.14 L 250 215.71999999999997 C 250 216.27228474983076 249.5522847498308 216.71999999999997 249 216.71999999999997 z" stroke-linecap="round" />
</g>
		<g transform="matrix(1 0 0 1 9 47.44)"  >
<path style="stroke: none; stroke-width: 1; stroke-dasharray: none; stroke-linecap: butt; stroke-dashoffset: 0; stroke-linejoin: miter; stroke-miterlimit: 4; fill: rgb(9,63,104); fill-rule: nonzero; opacity: 1;" vector-effect="non-scaling-stroke"  transform=" translate(-209, -197.43)" d="M 209 216.72 C 208.4477152501692 216.72 208 216.2722847498308 208 215.72 L 208 179.14 C 208 178.5877152501692 208.4477152501692 178.14 209 178.14 C 209.5522847498308 178.14 210 178.5877152501692 210 179.14 L 210 215.71999999999997 C 210 216.27228474983076 209.5522847498308 216.71999999999997 209 216.71999999999997 z" stroke-linecap="round" />
</g>
		<g transform="matrix(1 0 0 1 28.93 -20.94)"  >
<path style="stroke: none; stroke-width: 1; stroke-dasharray: none; stroke-linecap: butt; stroke-dashoffset: 0; stroke-linejoin: miter; stroke-miterlimit: 4; fill: rgb(9,63,104); fill-rule: nonzero; opacity: 1;" vector-effect="non-scaling-stroke"  transform=" translate(-228.93, -129.05)" d="M 228.92 134.69 C 227.87159645286815 134.6825321596617 226.82526659111403 134.59561658009108 225.79 134.43 C 225.2377152501692 134.33335016877962 224.8683501687796 133.8072847498308 224.96499999999997 133.255 C 225.06164983122036 132.7027152501692 225.5877152501692 132.33335016877962 226.14 132.43 C 227.7136530707496 132.67760518915597 229.3163469292504 132.67760518915597 230.89 132.43 C 231.08999999999997 131.51000000000002 229.89 128.08 228.19 124.85000000000001 C 228.03014122697311 124.52551503534616 228.05797840956754 124.13999524525546 228.26279591711304 123.8418424183312 C 228.4676134246585 123.54368959140693 228.81747842533665 123.37938834799455 229.17771406673967 123.41218472375515 C 229.5379497081427 123.44498109951576 229.852392118882 123.66976185406298 230 124.00000000000001 C 231.12 126.15000000000002 233.63 131.37 232.71 133.42000000000002 C 232.50125922450655 133.9165896796419 232.0719256773447 134.28670480650558 231.55 134.42000000000002 C 230.6877987190762 134.61797109212156 229.80444077250763 134.708658029602 228.92000000000002 134.69000000000003 z" stroke-linecap="round" />
</g>
		<g transform="matrix(1 0 0 1 14.37 -41.26)"  >
<path style="stroke: none; stroke-width: 1; stroke-dasharray: none; stroke-linecap: butt; stroke-dashoffset: 0; stroke-linejoin: miter; stroke-miterlimit: 4; fill: rgb(9,63,104); fill-rule: nonzero; opacity: 1;" vector-effect="non-scaling-stroke"  transform=" translate(-214.37, -108.73)" d="M 222 110.73 L 206.72 110.73 C 205.61543050033842 110.73 204.72 109.8345694996616 204.72 108.73 C 204.72 107.62543050033841 205.61543050033842 106.73 206.72 106.73 L 222.01 106.73 C 223.11456949966157 106.73 224.01 107.62543050033841 224.01 108.73 C 224.01 109.8345694996616 223.11456949966157 110.73 222.01 110.73 z" stroke-linecap="round" />
</g>
		<g transform="matrix(1 0 0 1 42.61 -41.26)"  >
<path style="stroke: none; stroke-width: 1; stroke-dasharray: none; stroke-linecap: butt; stroke-dashoffset: 0; stroke-linejoin: miter; stroke-miterlimit: 4; fill: rgb(9,63,104); fill-rule: nonzero; opacity: 1;" vector-effect="non-scaling-stroke"  transform=" translate(-242.61, -108.73)" d="M 250.25 110.73 L 234.97 110.73 C 233.86543050033842 110.73 232.97 109.8345694996616 232.97 108.73 C 232.97 107.62543050033841 233.86543050033842 106.73 234.97 106.73 L 250.25 106.73 C 251.35456949966158 106.73 252.25 107.62543050033841 252.25 108.73 C 252.25 109.8345694996616 251.35456949966158 110.73 250.25 110.73 z" stroke-linecap="round" />
</g>
		<g transform="matrix(1 0 0 1 14.38 -27.35)"  >
<path style="stroke: none; stroke-width: 1; stroke-dasharray: none; stroke-linecap: butt; stroke-dashoffset: 0; stroke-linejoin: miter; stroke-miterlimit: 4; fill: rgb(255,255,255); fill-rule: nonzero; opacity: 1;" vector-effect="non-scaling-stroke"  transform=" translate(-214.38, -122.64)" d="M 205.39 116.21 L 223.39 116.21 C 224.06895421398923 116.21 224.72010023101058 116.47971351133546 225.20019335983756 116.95980664016243 C 225.6802864886645 117.4398997689894 225.95 118.09104578601077 225.95 118.77 L 225.95 120.44 C 225.95 125.20621739103974 222.08621739103972 129.07 217.32 129.07 L 211.45 129.07 C 206.68378260896026 129.07 202.82 125.20621739103974 202.82 120.44 L 202.82 118.77 C 202.81999480672462 118.08930961828369 203.09108059891616 117.4366435377117 203.57333871462322 116.95626191272723 C 204.0555968303303 116.47588028774275 204.70931481153923 116.20734105317653 205.39 116.21 z" stroke-linecap="round" />
</g>
		<g transform="matrix(1 0 0 1 14.39 -27.35)"  >
<path style="stroke: none; stroke-width: 1; stroke-dasharray: none; stroke-linecap: butt; stroke-dashoffset: 0; stroke-linejoin: miter; stroke-miterlimit: 4; fill: rgb(9,63,104); fill-rule: nonzero; opacity: 1;" vector-effect="non-scaling-stroke"  transform=" translate(-214.39, -122.65)" d="M 217.33 130.08 L 211.47 130.08 C 206.15378263414803 130.0744881061167 201.8455118938833 125.76621736585199 201.84 120.45000000000002 L 201.84 118.77000000000001 C 201.8399922585574 116.80776492195274 203.42777266338007 115.21551189627142 205.39000000000001 115.21000000000001 L 223.39000000000001 115.21000000000001 C 225.35385379719696 115.2154933295412 226.94450667045882 116.80614620280305 226.95000000000002 118.77000000000001 L 226.95000000000002 120.45000000000002 C 226.94450071846802 125.7623202874961 222.64231170679355 130.06898142912033 217.33 130.08 z M 205.39000000000001 117.21000000000001 C 204.97717594926212 117.2099914083585 204.5814043112017 117.37466651058388 204.29043374916407 117.66751430205403 C 203.9994631871264 117.9603620935242 203.8373366189375 118.35718454081422 203.84 118.77000000000001 L 203.84 120.45000000000002 C 203.845509030762 124.66164861534472 207.2583513846553 128.074490969238 211.47 128.08 L 217.33 128.08 C 221.54327650048984 128.07450683384056 224.9589884696019 124.66326569191318 224.97 120.45000000000002 L 224.97 118.77000000000001 C 224.97 118.35626227585033 224.80564332902995 117.95947017172793 224.513086578651 117.666913421349 C 224.22052982827208 117.37435667097006 223.82373772414968 117.21000000000001 223.41 117.21000000000001 z" stroke-linecap="round" />
</g>
		<g transform="matrix(1 0 0 1 43.44 -27.35)"  >
<path style="stroke: none; stroke-width: 1; stroke-dasharray: none; stroke-linecap: butt; stroke-dashoffset: 0; stroke-linejoin: miter; stroke-miterlimit: 4; fill: rgb(255,255,255); fill-rule: nonzero; opacity: 1;" vector-effect="non-scaling-stroke"  transform=" translate(-243.44, -122.64)" d="M 234.45 116.21 L 252.45 116.21 C 253.12895421398923 116.21 253.78010023101058 116.47971351133546 254.26019335983756 116.95980664016243 C 254.7402864886645 117.4398997689894 255.01 118.09104578601077 255.01 118.77 L 255.01 120.44 C 255.01 125.20621739103974 251.14621739103973 129.07 246.38 129.07 L 240.51 129.07 C 235.74378260896026 129.07 231.88 125.20621739103974 231.88 120.44 L 231.88 118.77 C 231.87999480672462 118.08930961828369 232.15108059891617 117.4366435377117 232.63333871462322 116.95626191272723 C 233.1155968303303 116.47588028774275 233.76931481153923 116.20734105317653 234.45 116.21 z" stroke-linecap="round" />
</g>
		<g transform="matrix(1 0 0 1 43.45 -27.35)"  >
<path style="stroke: none; stroke-width: 1; stroke-dasharray: none; stroke-linecap: butt; stroke-dashoffset: 0; stroke-linejoin: miter; stroke-miterlimit: 4; fill: rgb(9,63,104); fill-rule: nonzero; opacity: 1;" vector-effect="non-scaling-stroke"  transform=" translate(-243.45, -122.65)" d="M 246.39 130.08 L 240.52999999999997 130.08 C 235.20987781077181 130.08000286244837 230.8955187989507 125.77011932678059 230.89 120.45000000000002 L 230.89 118.77000000000001 C 230.89549332954118 116.80614620280305 232.48614620280304 115.2154933295412 234.45 115.21000000000001 L 252.45 115.21000000000001 C 254.41222733661994 115.21551189627142 256.0000077414426 116.80776492195274 256 118.77000000000001 L 256 120.45000000000002 C 255.9945190255997 125.7584280841396 251.6984052170314 130.06348281634695 246.39 130.08 z M 234.45 117.21000000000001 C 234.0362622758503 117.21000000000001 233.6394701717279 117.37435667097006 233.34691342134897 117.666913421349 C 233.05435667097004 117.95947017172793 232.89 118.35626227585033 232.89 118.77000000000001 L 232.89 120.45000000000002 C 232.90101153039808 124.66326569191318 236.31672349951015 128.07450683384056 240.52999999999997 128.08 L 246.39 128.08 C 250.6016486153447 128.074490969238 254.01449096923798 124.66164861534472 254.01999999999998 120.45000000000002 L 254.01999999999998 118.77000000000001 C 254.02266338106247 118.35718454081422 253.8605368128736 117.96036209352418 253.56956625083592 117.66751430205403 C 253.27859568879828 117.37466651058386 252.88282405073787 117.2099914083585 252.46999999999997 117.21000000000001 z" stroke-linecap="round" />
</g>
		<g transform="matrix(1 0 0 1 -0.09 -29.54)"  >
<path style="stroke: none; stroke-width: 1; stroke-dasharray: none; stroke-linecap: butt; stroke-dashoffset: 0; stroke-linejoin: miter; stroke-miterlimit: 4; fill: rgb(9,63,104); fill-rule: nonzero; opacity: 1;" vector-effect="non-scaling-stroke"  transform=" translate(-199.91, -120.45)" d="M 202.84 121.45 L 197 121.45 C 196.4477152501692 121.45 196 121.00228474983079 196 120.45 C 196 119.89771525016921 196.4477152501692 119.45 197 119.45 L 202.81 119.45 C 203.3622847498308 119.45 203.81 119.89771525016921 203.81 120.45 C 203.81 121.00228474983079 203.3622847498308 121.45 202.81 121.45 z" stroke-linecap="round" />
</g>
		<g transform="matrix(1 0 0 1 58.22 -29.54)"  >
<path style="stroke: none; stroke-width: 1; stroke-dasharray: none; stroke-linecap: butt; stroke-dashoffset: 0; stroke-linejoin: miter; stroke-miterlimit: 4; fill: rgb(9,63,104); fill-rule: nonzero; opacity: 1;" vector-effect="non-scaling-stroke"  transform=" translate(-258.22, -120.45)" d="M 261.12 121.45 L 255.32 121.45 C 254.7677152501692 121.45 254.32 121.00228474983079 254.32 120.45 C 254.32 119.89771525016921 254.7677152501692 119.45 255.32 119.45 L 261.12 119.45 C 261.6722847498308 119.45 262.12 119.89771525016921 262.12 120.45 C 262.12 121.00228474983079 261.6722847498308 121.45 261.12 121.45 z" stroke-linecap="round" />
</g>
		<g transform="matrix(1 0 0 1 28.96 -29.54)"  >
<path style="stroke: none; stroke-width: 1; stroke-dasharray: none; stroke-linecap: butt; stroke-dashoffset: 0; stroke-linejoin: miter; stroke-miterlimit: 4; fill: rgb(9,63,104); fill-rule: nonzero; opacity: 1;" vector-effect="non-scaling-stroke"  transform=" translate(-228.96, -120.45)" d="M 231.89 121.45 L 226 121.45 C 225.4477152501692 121.45 225 121.00228474983079 225 120.45 C 225 119.89771525016921 225.4477152501692 119.45 226 119.45 L 231.92 119.45 C 232.47228474983078 119.45 232.92 119.89771525016921 232.92 120.45 C 232.92 121.00228474983079 232.47228474983078 121.45 231.92 121.45 z" stroke-linecap="round" />
</g>
		<g transform="matrix(1 0 0 1 28.51 -7.59)"  >
<path style="stroke: none; stroke-width: 1; stroke-dasharray: none; stroke-linecap: butt; stroke-dashoffset: 0; stroke-linejoin: miter; stroke-miterlimit: 4; fill: rgb(9,63,104); fill-rule: nonzero; opacity: 1;" vector-effect="non-scaling-stroke"  transform=" translate(-228.51, -142.4)" d="M 228.33 144.33 C 224.7618694913394 144.3439643695823 221.22206603122706 143.69635664843148 217.89000000000001 142.42000000000002 C 217.37361375890822 142.22117749006094 217.11617749006092 141.6413862410918 217.31500000000003 141.125 C 217.5138225099391 140.60861375890823 218.09361375890822 140.35117749006093 218.61 140.55 C 224.99997070382807 142.84625178216422 231.99002929617194 142.84625178216422 238.38000000000002 140.55 C 238.89086339359352 140.33737037131516 239.47737037131517 140.5791366064065 239.69000000000003 141.09 C 239.90262962868488 141.60086339359347 239.66086339359353 142.18737037131515 239.15000000000003 142.4 C 235.6896078548191 143.69193796083607 232.02366571933158 144.34584446004965 228.33000000000004 144.33 z" stroke-linecap="round" />
</g>
		<g transform="matrix(1 0 0 1 61.93 56.2)"  >
<path style="stroke: none; stroke-width: 1; stroke-dasharray: none; stroke-linecap: butt; stroke-dashoffset: 0; stroke-linejoin: miter; stroke-miterlimit: 4; fill: rgb(9,63,104); fill-rule: nonzero; opacity: 1;" vector-effect="non-scaling-stroke"  transform=" translate(-261.93, -206.2)" d="M 256.41 208.32 C 255.92723923625036 208.32973570539752 255.50647362580114 207.99312321703812 255.41000000000003 207.51999999999998 C 255.35690146470174 207.2600825158905 255.4092575271266 206.989717514338 255.55554487253488 206.7684110174383 C 255.70183221794318 206.5471045205386 255.9300612972698 206.39299456405675 256.19 206.33999999999997 L 267.25 204.07999999999998 C 267.8022847498308 203.96954305003382 268.33954305003385 204.3277152501692 268.45 204.88 C 268.5604569499661 205.43228474983079 268.20228474983077 205.96954305003382 267.65 206.07999999999998 L 256.59 208.32999999999998 C 256.52982871024864 208.33517620168683 256.46922764101214 208.33180947561814 256.40999999999997 208.32 z" stroke-linecap="round" />
</g>
		<g transform="matrix(1 0 0 1 -3.97 56.16)"  >
<path style="stroke: none; stroke-width: 1; stroke-dasharray: none; stroke-linecap: butt; stroke-dashoffset: 0; stroke-linejoin: miter; stroke-miterlimit: 4; fill: rgb(9,63,104); fill-rule: nonzero; opacity: 1;" vector-effect="non-scaling-stroke"  transform=" translate(-196.03, -206.15)" d="M 201.57 208.32 C 201.50374527853938 208.33048103310512 201.4362547214606 208.33048103310512 201.37 208.32 L 190.31 206 C 189.7577152501692 205.88954305003384 189.39954305003386 205.3522847498308 189.51000000000002 204.79999999999998 C 189.62045694996615 204.2477152501692 190.15771525016922 203.88954305003384 190.71 204 L 201.77 206.26 C 202.02993870273022 206.31299456405674 202.25816778205686 206.46710452053858 202.40445512746513 206.6884110174383 C 202.55074247287342 206.909717514338 202.6030985352983 207.18008251589052 202.55 207.44 C 202.48991672129875 207.93741958873716 202.0709942336248 208.31359488379132 201.57000000000002 208.32 z" stroke-linecap="round" />
</g>
		<g transform="matrix(1 0 0 1 28.94 56.19)"  >
<path style="stroke: none; stroke-width: 1; stroke-dasharray: none; stroke-linecap: butt; stroke-dashoffset: 0; stroke-linejoin: miter; stroke-miterlimit: 4; fill: rgb(245,97,50); fill-rule: nonzero; opacity: 1;" vector-effect="non-scaling-stroke"  transform=" translate(-228.94, -206.18)" d="M 200.76 187.36 L 257.1 187.36 C 259.7399211041912 187.36 261.88 189.50007889580883 261.88 192.14000000000001 L 261.88 225 L 196 225 L 196 192.14 C 195.99997695994665 189.50786969876282 198.1278927387153 187.3710130973943 200.76 187.35999999999999 z" stroke-linecap="round" />
</g>
		<g transform="matrix(1 0 0 1 28.94 56.19)"  >
<path style="stroke: none; stroke-width: 1; stroke-dasharray: none; stroke-linecap: butt; stroke-dashoffset: 0; stroke-linejoin: miter; stroke-miterlimit: 4; fill: rgb(9,63,104); fill-rule: nonzero; opacity: 1;" vector-effect="non-scaling-stroke"  transform=" translate(-228.94, -206.18)" d="M 261.88 226 L 196 226 C 195.4477152501692 226 195 225.5522847498308 195 225 L 195 192.14 C 195 188.947794145978 197.58779414597802 186.35999999999999 200.78 186.35999999999999 L 257.1 186.35999999999999 C 260.292205854022 186.35999999999999 262.88 188.947794145978 262.88 192.14 L 262.88 225 C 262.88 225.5522847498308 262.4322847498308 226 261.88 226 z M 197 224 L 260.9 224 L 260.9 192.14 C 260.8945049622017 190.05464400583557 259.2053559941644 188.36549503779824 257.12 188.35999999999999 L 200.76 188.35999999999999 C 198.67464400583557 188.36549503779824 196.98549503779824 190.05464400583557 196.98 192.14 z" stroke-linecap="round" />
</g>
		<g transform="matrix(1 0 0 1 28.93 77.42)"  >
<path style="stroke: none; stroke-width: 1; stroke-dasharray: none; stroke-linecap: butt; stroke-dashoffset: 0; stroke-linejoin: miter; stroke-miterlimit: 4; fill: rgb(245,97,50); fill-rule: nonzero; opacity: 1;" vector-effect="non-scaling-stroke"  transform=" translate(-228.94, -227.41)" d="M 192.78 225 L 265.09000000000003 225 C 265.09000000000003 227.6620124941844 262.93201249418445 229.82 260.27000000000004 229.82 L 197.60000000000002 229.82 C 194.9379875058156 229.82 192.78000000000003 227.6620124941844 192.78000000000003 225 z" stroke-linecap="round" />
</g>
		<g transform="matrix(1 0 0 1 28.93 77.44)"  >
<path style="stroke: none; stroke-width: 1; stroke-dasharray: none; stroke-linecap: butt; stroke-dashoffset: 0; stroke-linejoin: miter; stroke-miterlimit: 4; fill: rgb(9,63,104); fill-rule: nonzero; opacity: 1;" vector-effect="non-scaling-stroke"  transform=" translate(-228.93, -227.43)" d="M 260.26 230.84 L 197.6 230.84 C 194.38798566110393 230.8344952503678 191.7855047496322 228.23201433889608 191.78 225.02 C 191.78 224.46771525016922 192.2277152501692 224.02 192.78 224.02 L 265.08 224.02 C 265.6322847498308 224.02 266.08 224.46771525016922 266.08 225.02 C 266.0744952503678 228.23201433889608 263.4720143388961 230.8344952503678 260.26 230.84 z M 193.91 226 C 194.36479640279526 227.66358143674668 195.87537279757476 228.8180056734074 197.6 228.82 L 260.26 228.82 C 262.0031699397739 228.84070917805548 263.5404034593303 227.68161866330973 264 226 z" stroke-linecap="round" />
</g>
		<g transform="matrix(1 0 0 1 28.19 28.37)"  >
<path style="stroke: none; stroke-width: 1; stroke-dasharray: none; stroke-linecap: butt; stroke-dashoffset: 0; stroke-linejoin: miter; stroke-miterlimit: 4; fill: rgb(9,63,104); fill-rule: nonzero; opacity: 1;" vector-effect="non-scaling-stroke"  transform=" translate(-228.19, -178.36)" d="M 228.19 188.36 C 227.6377152501692 188.36 227.19 187.9122847498308 227.19 187.36 L 227.19 169.36 C 227.19 168.80771525016922 227.6377152501692 168.36 228.19 168.36 C 228.7422847498308 168.36 229.19 168.80771525016922 229.19 169.36 L 229.19 187.36 C 229.19 187.9122847498308 228.7422847498308 188.36 228.19 188.36 z" stroke-linecap="round" />
</g>
		<g transform="matrix(1 0 0 1 -52.64 65.38)"  >
<path style="stroke: none; stroke-width: 1; stroke-dasharray: none; stroke-linecap: butt; stroke-dashoffset: 0; stroke-linejoin: miter; stroke-miterlimit: 4; fill: rgb(255,188,14); fill-rule: nonzero; opacity: 1;" vector-effect="non-scaling-stroke"  transform=" translate(-147.36, -215.38)" d="M 133.36 200.91 L 161.36 200.91 L 161.36 220.65 C 161.36 225.725496850945 157.24549685094502 229.84 152.17000000000002 229.84 L 142.55 229.84 C 137.474503149055 229.84 133.36 225.725496850945 133.36 220.65 L 133.36 200.91 z" stroke-linecap="round" />
</g>
		<g transform="matrix(1 0 0 1 -52.64 65.38)"  >
<path style="stroke: none; stroke-width: 1; stroke-dasharray: none; stroke-linecap: butt; stroke-dashoffset: 0; stroke-linejoin: miter; stroke-miterlimit: 4; fill: rgb(9,63,104); fill-rule: nonzero; opacity: 1;" vector-effect="non-scaling-stroke"  transform=" translate(-147.36, -215.38)" d="M 152.17 230.84 L 142.54999999999998 230.84 C 136.92450333138083 230.83448750542027 132.36551249457972 226.27549666861916 132.35999999999999 220.65 L 132.35999999999999 200.91 C 132.35999999999999 200.3577152501692 132.8077152501692 199.91 133.35999999999999 199.91 L 161.35999999999999 199.91 C 161.91228474983077 199.91 162.35999999999999 200.3577152501692 162.35999999999999 200.91 L 162.35999999999999 220.65 C 162.35448750542025 226.27549666861916 157.79549666861914 230.83448750542027 152.17 230.84 z M 134.35999999999999 201.91 L 134.35999999999999 220.65 C 134.35999999999999 225.17321210111422 138.0267878988858 228.84 142.54999999999998 228.84 L 152.17 228.84 C 156.6909278286688 228.8344900269797 160.35449002697968 225.17092782866882 160.35999999999999 220.65 L 160.35999999999999 201.91 z" stroke-linecap="round" />
</g>
		<g transform="matrix(1 0 0 1 0 85.72)"  >
<rect style="stroke: none; stroke-width: 1; stroke-dasharray: none; stroke-linecap: butt; stroke-dashoffset: 0; stroke-linejoin: miter; stroke-miterlimit: 4; fill: rgb(114,88,88); fill-rule: nonzero; opacity: 1;" vector-effect="non-scaling-stroke"  x="-89.49" y="-5.875" rx="5.88" ry="5.88" width="178.98" height="11.75" />
</g>
		<g transform="matrix(1 0 0 1 0 85.72)"  >
<path style="stroke: none; stroke-width: 1; stroke-dasharray: none; stroke-linecap: butt; stroke-dashoffset: 0; stroke-linejoin: miter; stroke-miterlimit: 4; fill: rgb(9,63,104); fill-rule: nonzero; opacity: 1;" vector-effect="non-scaling-stroke"  transform=" translate(-200, -235.71)" d="M 283.61 242.59 L 116.39000000000001 242.59 C 113.87126010727498 242.68607843443363 111.5016197486257 241.39712983902842 110.21369424607454 239.23044351825052 C 108.92576874352338 237.0637571974726 108.92576874352338 234.3662428025274 110.21369424607454 232.19955648174948 C 111.50161974862569 230.03287016097158 113.87126010727498 228.74392156556638 116.39000000000001 228.84 L 283.61 228.84 C 286.12873989272504 228.74392156556638 288.49838025137433 230.03287016097158 289.7863057539255 232.19955648174948 C 291.07423125647665 234.3662428025274 291.07423125647665 237.0637571974726 289.7863057539255 239.2304435182505 C 288.49838025137433 241.39712983902842 286.12873989272504 242.68607843443363 283.61 242.59 z M 116.39000000000001 230.84 C 114.59565714528225 230.75871143656067 112.90170867602794 231.66969340954418 111.98024621643852 233.21150437279167 C 111.0587837568491 234.75331533603915 111.0587837568491 236.67668466396086 111.98024621643852 238.21849562720834 C 112.90170867602794 239.76030659045583 114.59565714528225 240.67128856343933 116.39000000000001 240.59 L 283.61 240.59 C 285.40434285471775 240.67128856343933 287.0982913239721 239.76030659045583 288.0197537835615 238.21849562720834 C 288.94121624315096 236.67668466396086 288.94121624315096 234.75331533603915 288.0197537835615 233.21150437279167 C 287.0982913239721 231.66969340954418 285.40434285471775 230.75871143656067 283.61 230.84 z" stroke-linecap="round" />
</g>
		<g transform="matrix(1 0 0 1 -33.28 62.07)"  >
<path style="stroke: none; stroke-width: 1; stroke-dasharray: none; stroke-linecap: butt; stroke-dashoffset: 0; stroke-linejoin: miter; stroke-miterlimit: 4; fill: rgb(9,63,104); fill-rule: nonzero; opacity: 1;" vector-effect="non-scaling-stroke"  transform=" translate(-166.72, -212.06)" d="M 163 221 L 161.37 221 C 160.81771525016921 221 160.37 220.5522847498308 160.37 220 L 160.37 204.13 C 160.37 203.5777152501692 160.81771525016921 203.13 161.37 203.13 L 163 203.13 C 166.44950595429654 202.71315968931606 169.83084579743985 204.31920816042953 171.68733997568933 207.2562605160174 C 173.54383415393877 210.19331287160523 173.54383415393875 213.93668712839477 171.6873399756893 216.8737394839826 C 169.83084579743985 219.81079183957047 166.4495059542965 221.41684031068394 163 221 z M 162.37 219 L 163 219 C 165.67369445974217 219.3046392230687 168.28532075082924 218.0496272309991 169.71796531407674 215.77169468685184 C 171.15060987732423 213.49376214270458 171.15060987732423 210.59623785729542 169.71796531407674 208.31830531314816 C 168.28532075082924 206.0403727690009 165.67369445974217 204.78536077693133 163 205.09 L 162.37 205.09 z" stroke-linecap="round" />
</g>
		<g transform="matrix(1 0 0 1 -54.64 -9.98)"  >
<rect style="stroke: none; stroke-width: 1; stroke-dasharray: none; stroke-linecap: butt; stroke-dashoffset: 0; stroke-linejoin: miter; stroke-miterlimit: 4; fill: rgb(255,255,255); fill-rule: nonzero; opacity: 1;" vector-effect="non-scaling-stroke"  x="-32.14" y="-27.035" rx="2.5" ry="2.5" width="64.28" height="54.07" />
</g>
		<g transform="matrix(1 0 0 1 -54.64 -9.98)"  >
<path style="stroke: none; stroke-width: 1; stroke-dasharray: none; stroke-linecap: butt; stroke-dashoffset: 0; stroke-linejoin: miter; stroke-miterlimit: 4; fill: rgb(9,63,104); fill-rule: nonzero; opacity: 1;" vector-effect="non-scaling-stroke"  transform=" translate(-145.36, -140.01)" d="M 175 168.05 L 115.71000000000001 168.05 C 113.78090976763279 168.04448829114108 112.21999212611416 166.479098106237 112.22000000000001 164.55 L 112.22000000000001 115.47000000000001 C 112.22000000000001 113.54252622309055 113.78252622309054 111.98000000000002 115.71000000000001 111.98000000000002 L 175 111.98000000000002 C 176.92909810623698 111.97999212611417 178.49448829114107 113.5409097676328 178.5 115.47000000000001 L 178.5 164.55 C 178.5 166.48299662440778 176.93299662440776 168.05 175 168.05 z M 115.71000000000001 114.00000000000001 C 114.88709572275214 114.00000000000001 114.22000000000001 114.66709572275214 114.22000000000001 115.49000000000001 L 114.22000000000001 164.57 C 114.21998167674126 165.39453754314857 114.88548077990657 166.0645030832479 115.71000000000001 166.07 L 175 166.07 C 175.82842712474618 166.07 176.5 165.39842712474618 176.5 164.57 L 176.5 115.47 C 176.4836629876085 114.65331194971503 175.81685142024548 113.99983661369926 175 114 z" stroke-linecap="round" />
</g>
		<g transform="matrix(1 0 0 1 -54.64 -33.58)"  >
<path style="stroke: none; stroke-width: 1; stroke-dasharray: none; stroke-linecap: butt; stroke-dashoffset: 0; stroke-linejoin: miter; stroke-miterlimit: 4; fill: rgb(104,225,253); fill-rule: nonzero; opacity: 1;" vector-effect="non-scaling-stroke"  transform=" translate(-145.36, -116.41)" d="M 115.71 113 L 175 113 C 176.38071187457697 113 177.5 114.11928812542301 177.5 115.5 L 177.5 119.83 L 113.22 119.83 L 113.22 115.5 C 113.21998898542779 114.1231839590599 114.33319497358805 113.00550726411988 115.71 113 z" stroke-linecap="round" />
</g>
		<g transform="matrix(1 0 0 1 -54.64 -33.6)"  >
<path style="stroke: none; stroke-width: 1; stroke-dasharray: none; stroke-linecap: butt; stroke-dashoffset: 0; stroke-linejoin: miter; stroke-miterlimit: 4; fill: rgb(9,63,104); fill-rule: nonzero; opacity: 1;" vector-effect="non-scaling-stroke"  transform=" translate(-145.36, -116.39)" d="M 177.5 120.81 L 113.22 120.81 C 112.66771525016921 120.81 112.22 120.36228474983079 112.22 119.81 L 112.22 115.47 C 112.22 113.54252622309053 113.78252622309053 111.98 115.71 111.98 L 175 111.98 C 176.92909810623698 111.97999212611415 178.49448829114107 113.54090976763278 178.5 115.47 L 178.5 119.81 C 178.5 120.36228474983079 178.0522847498308 120.81 177.5 120.81 z M 114.22 118.81 L 176.5 118.81 L 176.5 115.47 C 176.4836629876085 114.65331194971503 175.81685142024548 113.99983661369926 175 114 L 115.71000000000001 114 C 114.88709572275214 114 114.22000000000001 114.66709572275212 114.22000000000001 115.49 z" stroke-linecap="round" />
</g>
		<g transform="matrix(1 0 0 1 -81.79 -33.6)"  >
<circle style="stroke: none; stroke-width: 1; stroke-dasharray: none; stroke-linecap: butt; stroke-dashoffset: 0; stroke-linejoin: miter; stroke-miterlimit: 4; fill: rgb(9,63,104); fill-rule: nonzero; opacity: 1;" vector-effect="non-scaling-stroke"  cx="0" cy="0" r="1.34" />
</g>
		<g transform="matrix(1 0 0 1 -78.04 -33.6)"  >
<circle style="stroke: none; stroke-width: 1; stroke-dasharray: none; stroke-linecap: butt; stroke-dashoffset: 0; stroke-linejoin: miter; stroke-miterlimit: 4; fill: rgb(9,63,104); fill-rule: nonzero; opacity: 1;" vector-effect="non-scaling-stroke"  cx="0" cy="0" r="1.34" />
</g>
		<g transform="matrix(1 0 0 1 -74.28 -33.6)"  >
<circle style="stroke: none; stroke-width: 1; stroke-dasharray: none; stroke-linecap: butt; stroke-dashoffset: 0; stroke-linejoin: miter; stroke-miterlimit: 4; fill: rgb(9,63,104); fill-rule: nonzero; opacity: 1;" vector-effect="non-scaling-stroke"  cx="0" cy="0" r="1.34" />
</g>
		<g transform="matrix(1 0 0 1 -70.29 -7.1)"  >
<path style="stroke: none; stroke-width: 1; stroke-dasharray: none; stroke-linecap: butt; stroke-dashoffset: 0; stroke-linejoin: miter; stroke-miterlimit: 4; fill: rgb(9,63,104); fill-rule: nonzero; opacity: 1;" vector-effect="non-scaling-stroke"  transform=" translate(-129.71, -142.89)" d="M 137.09 138.65 L 127.84 142.87 L 127.84 142.94 L 137.09 147.16 L 137.09 151.78 L 122.32000000000001 145.05 L 122.32000000000001 140.76000000000002 L 137.09 134.00000000000003 z" stroke-linecap="round" />
</g>
		<g transform="matrix(1 0 0 1 -54.65 -8.83)"  >
<path style="stroke: none; stroke-width: 1; stroke-dasharray: none; stroke-linecap: butt; stroke-dashoffset: 0; stroke-linejoin: miter; stroke-miterlimit: 4; fill: rgb(9,63,104); fill-rule: nonzero; opacity: 1;" vector-effect="non-scaling-stroke"  transform=" translate(-145.35, -141.16)" d="M 148.06 127.33 L 151.38 128.52 L 142.63 155 L 139.32999999999998 153.81 z" stroke-linecap="round" />
</g>
		<g transform="matrix(1 0 0 1 -38.99 -7.12)"  >
<path style="stroke: none; stroke-width: 1; stroke-dasharray: none; stroke-linecap: butt; stroke-dashoffset: 0; stroke-linejoin: miter; stroke-miterlimit: 4; fill: rgb(9,63,104); fill-rule: nonzero; opacity: 1;" vector-effect="non-scaling-stroke"  transform=" translate(-161.01, -142.88)" d="M 153.63 147.16 L 162.88 142.94 L 162.88 142.87 L 153.63 138.65 L 153.63 134 L 168.39 140.73 L 168.39 145.01999999999998 L 153.63 151.74999999999997 z" stroke-linecap="round" />
</g>
</g>
</g>
</svg>